<?xml version="1.0" encoding="UTF-8" standalone="no"?>
<!-- Created with Inkscape (http://www.inkscape.org/) -->
<svg
   xmlns:dc="http://purl.org/dc/elements/1.1/"
   xmlns:cc="http://creativecommons.org/ns#"
   xmlns:rdf="http://www.w3.org/1999/02/22-rdf-syntax-ns#"
   xmlns:svg="http://www.w3.org/2000/svg"
   xmlns="http://www.w3.org/2000/svg"
   xmlns:sodipodi="http://sodipodi.sourceforge.net/DTD/sodipodi-0.dtd"
   xmlns:inkscape="http://www.inkscape.org/namespaces/inkscape"
   width="250"
   height="250"
   id="svg2"
   sodipodi:version="0.32"
   inkscape:version="0.46"
   version="1.0"
   sodipodi:docname="android_sub_template.svg"
   inkscape:output_extension="org.inkscape.output.svg.inkscape"
   style="display:inline">
  <sodipodi:namedview
     id="base"
     pagecolor="#ffffff"
     bordercolor="#666666"
     borderopacity="1.0"
     gridtolerance="10000"
     guidetolerance="10"
     objecttolerance="10"
     inkscape:pageopacity="0.0"
     inkscape:pageshadow="2"
     inkscape:zoom="3.6203867"
     inkscape:cx="191.99641"
     inkscape:cy="80.843157"
     inkscape:document-units="px"
     inkscape:current-layer="layer10"
     showgrid="false"
     inkscape:window-width="1920"
     inkscape:window-height="1115"
     inkscape:window-x="0"
     inkscape:window-y="54"
     inkscape:window-maximized="1" />
  <defs
     id="defs4">
    <inkscape:perspective
       id="perspective10"
       inkscape:persp3d-origin="-70.208843 : 241.50168 : 1"
       inkscape:vp_z="-391.98995 : 172.73583 : 1"
       inkscape:vp_y="0 : 1000 : 0"
       inkscape:vp_x="335.40983 : 379.03823 : 1"
       sodipodi:type="inkscape:persp3d" />
    <inkscape:perspective
       sodipodi:type="inkscape:persp3d"
       inkscape:vp_x="0 : 526.18109 : 1"
       inkscape:vp_y="0 : 1000 : 0"
       inkscape:vp_z="744.09448 : 526.18109 : 1"
       inkscape:persp3d-origin="372.04724 : 350.78739 : 1"
       id="perspective2446" />
    <filter
       inkscape:label="filter1"
       id="filter16860" />
    <inkscape:perspective
       id="perspective2448"
       inkscape:persp3d-origin="305.65302 : 189.50401 : 1"
       inkscape:vp_z="611.30603 : 284.25601 : 1"
       inkscape:vp_y="0 : 1000 : 0"
       inkscape:vp_x="0 : 284.25601 : 1"
       sodipodi:type="inkscape:persp3d" />
  </defs>
  <metadata
     id="metadata7">
    <rdf:RDF>
      <cc:Work
         rdf:about="">
        <dc:format>image/svg+xml</dc:format>
        <dc:type
           rdf:resource="http://purl.org/dc/dcmitype/StillImage" />
        <dc:title />
      </cc:Work>
    </rdf:RDF>
  </metadata>
  <g
     id="layer1"
     inkscape:groupmode="layer"
     inkscape:label="base_cube"
     style="display:none">
    <g
       inkscape:export-ydpi="273.94623"
       inkscape:export-xdpi="273.94623"
       inkscape:export-filename="/home/ezuall/workspace/everated_resources/3D Icon Tutorial/guide.png"
       transform="matrix(1.6242681,0,0,1.6240778,-52.564392,-74.92885)"
       style="fill:none;stroke:#222222;stroke-width:0.24627919;stroke-linecap:butt;stroke-linejoin:miter;marker:none;stroke-miterlimit:4;stroke-dasharray:none;stroke-dashoffset:0;stroke-opacity:1;visibility:visible;display:inline;overflow:visible;enable-background:accumulate"
       id="g2425">
      <g
         id="g7941">
        <g
           id="g7938">
          <path
             sodipodi:nodetypes="ccccccccccccccccccccccccccccccc"
             d="M 169.56645,127.17658 L 149.51743,195.31531 L 148.81112,182.48698 L 144.87458,110.98958 L 168.13788,62.603382 L 169.56645,127.17658 L 169.56645,127.17658 z M 149.51743,195.31531 L 144.87458,110.98958 L 49.072815,96.18244 L 59.429958,176.44615 L 149.51743,195.31531 z M 168.13788,62.603382 L 144.87458,110.98958 L 49.072815,96.18244 L 88.835468,50.890691 L 168.13788,62.603382 z M 169.56645,127.17658 L 149.51743,195.31531 L 59.429958,176.44615 L 93.478325,114.05959 L 169.56645,127.17658 L 169.56645,127.17658 z M 169.56645,127.17658 L 168.13788,62.603382 L 88.835468,50.890691 L 93.478325,114.05959 L 169.56645,127.17658 z M 93.478325,114.05959 L 59.429958,176.44615 L 49.072815,96.18244 L 88.835468,50.890691 L 93.478325,114.05959 z"
             style="fill:none;stroke:#222222;stroke-width:0.24627919;stroke-linecap:butt;stroke-linejoin:round;stroke-miterlimit:4;stroke-dasharray:none;stroke-opacity:1"
             id="path3294" />
        </g>
      </g>
    </g>
  </g>
  <g
     inkscape:groupmode="layer"
     id="layer5"
     inkscape:label="vertical_09"
     style="display:none">
    <path
       inkscape:export-ydpi="273.94623"
       inkscape:export-xdpi="273.94623"
       inkscape:export-filename="/home/ezuall/workspace/everated_resources/3D Icon Tutorial/guide.png"
       style="opacity:0.54751132;fill:#73da0e;fill-opacity:1;fill-rule:evenodd;stroke:none;stroke-width:3.88474703;marker:none;visibility:visible;display:inline;overflow:visible;enable-background:accumulate"
       d="M 27.072994,81.162766 L 182.51422,105.63809 L 190.30708,242.47486 L 43.866992,211.58772 L 27.072994,81.162766 z"
       id="path2649"
       sodipodi:nodetypes="ccccc" />
    <path
       inkscape:export-ydpi="273.94623"
       inkscape:export-xdpi="273.94623"
       inkscape:export-filename="/home/ezuall/workspace/everated_resources/3D Icon Tutorial/guide.png"
       style="opacity:0.54751132;fill:#73da0e;fill-opacity:1;fill-rule:evenodd;stroke:none;stroke-width:3.88474703;marker:none;visibility:visible;display:inline;overflow:visible;enable-background:accumulate"
       d="M 91.826546,7.749779 L 220.19885,26.148409 L 222.46744,131.49683 L 99.505503,110.27717 L 91.826546,7.749779 z"
       id="path2651"
       sodipodi:nodetypes="ccccc" />
  </g>
  <g
     inkscape:groupmode="layer"
     id="layer6"
     inkscape:label="vertical_07"
     style="display:none">
    <path
       style="opacity:0.54751132;fill:#73da0e;fill-opacity:1;fill-rule:evenodd;stroke:none;stroke-width:3.88474703;marker:none;visibility:visible;display:inline;overflow:visible;enable-background:accumulate"
       d="M 33.943808,73.187098 L 187.45154,95.86704 L 194.13955,229.25114 L 50.323486,199.88318 L 33.943808,73.187098 z"
       id="path2645"
       sodipodi:nodetypes="ccccc" />
    <path
       style="opacity:0.54751132;fill:#73da0e;fill-opacity:1;fill-rule:evenodd;stroke:none;stroke-width:3.88474703;marker:none;visibility:visible;display:inline;overflow:visible;enable-background:accumulate"
       d="M 84.874156,15.580828 L 216.31733,34.526136 L 219.44233,142.97318 L 93.565558,120.70756 L 84.874156,15.580828 z"
       id="path2647"
       sodipodi:nodetypes="ccccc" />
  </g>
  <g
     inkscape:groupmode="layer"
     id="layer7"
     inkscape:label="vertical_05"
     style="display:none"
     sodipodi:insensitive="true">
    <path
       style="opacity:0.54751132;fill:#73da0e;fill-opacity:1;fill-rule:evenodd;stroke:none;stroke-width:3.88474703;marker:none;visibility:visible;display:inline;overflow:visible;enable-background:accumulate"
       d="M 77.530714,23.776342 L 212.05486,43.603432 L 215.42831,155.88496 L 87.271452,131.82226 L 77.530714,23.776342 z"
       id="path2641"
       sodipodi:nodetypes="ccccc" />
    <path
       style="opacity:0.54751132;fill:#73da0e;fill-opacity:1;fill-rule:evenodd;stroke:none;stroke-width:3.88474703;marker:none;visibility:visible;display:inline;overflow:visible;enable-background:accumulate"
       d="M 41.398525,64.897639 L 191.5917,87.163259 L 197.45107,217.09469 L 56.535242,188.96969 L 41.398525,64.897639 z"
       id="path2639"
       sodipodi:nodetypes="ccccc" />
  </g>
  <g
     inkscape:groupmode="layer"
     id="layer3"
     inkscape:label="vertical_03"
     style="display:none"
     sodipodi:insensitive="true">
    <path
       style="opacity:0.54751132;fill:#73da0e;fill-opacity:1;fill-rule:evenodd;stroke:none;stroke-width:3.88474703;marker:none;visibility:visible;display:inline;overflow:visible;enable-background:accumulate"
       d="M 70.231193,32.006388 207.57874,52.190596 212.54245,167.6804 81.343184,143.07796 70.231193,32.006388 z"
       id="path2534"
       sodipodi:nodetypes="ccccc" />
    <path
       style="opacity:0.54751132;fill:#73da0e;fill-opacity:1;fill-rule:evenodd;stroke:none;stroke-width:3.88474703;marker:none;visibility:visible;display:inline;overflow:visible;enable-background:accumulate"
       d="M 48.50559,56.653899 195.18314,78.138271 201.04251,205.33533 62.665745,177.40564 48.50559,56.653899 z"
       id="path2532"
       sodipodi:nodetypes="ccccc" />
  </g>
  <g
     inkscape:groupmode="layer"
     id="layer9"
     inkscape:label="vertical_01"
     style="display:none"
     sodipodi:insensitive="true">
    <path
       style="opacity:0.54751132;fill:#73da0e;fill-opacity:1;fill-rule:evenodd;stroke:none;stroke-width:3.88474703;marker:none;visibility:visible;display:inline;overflow:visible;enable-background:accumulate"
       d="M 55.627594,48.374611 200.1567,69.663673 204.8442,191.7826 68.811187,166.48963 55.627594,48.374611 z"
       id="rect2425"
       sodipodi:nodetypes="ccccc" />
    <path
       style="opacity:0.54751132;fill:#73da0e;fill-opacity:1;fill-rule:evenodd;stroke:none;stroke-width:3.88474703;marker:none;visibility:visible;display:inline;overflow:visible;enable-background:accumulate"
       d="M 63.041649,40.175544 203.85982,61.171637 208.44967,180.36087 75.053366,154.48197 63.041649,40.175544 z"
       id="path2428"
       sodipodi:nodetypes="ccccc" />
  </g>
  <g
     inkscape:groupmode="layer"
     id="layer2"
     inkscape:label="horizontal_09"
     style="display:none">
    <path
       style="opacity:0.54751132;fill:#73da0e;fill-opacity:1;fill-rule:evenodd;stroke:none;stroke-width:3.88474703;marker:none;visibility:visible;display:inline;overflow:visible;enable-background:accumulate"
       d="M 98.62212,109.69163 L 222.09773,131.17601 L 189.83963,241.80024 L 42.62403,211.10842 L 98.62212,109.69163 z"
       id="path2438"
       sodipodi:nodetypes="ccccc" />
    <path
       style="opacity:0.54751132;fill:#73da0e;fill-opacity:1;fill-rule:evenodd;stroke:none;stroke-width:3.88474703;marker:none;visibility:visible;display:inline;overflow:visible;enable-background:accumulate"
       d="M 92.767066,7.7214326 L 220.66209,26.443677 L 182.32729,105.57956 L 27.37771,80.412008 L 92.767066,7.7214326 z"
       id="path2440"
       sodipodi:nodetypes="ccccc" />
  </g>
  <g
     style="display:none"
     inkscape:label="horizontal_07"
     id="layer4"
     inkscape:groupmode="layer"
     sodipodi:insensitive="true">
    <path
       style="opacity:0.54751132;fill:#73da0e;fill-opacity:1;fill-rule:evenodd;stroke:none;stroke-width:3.88474703;marker:none;visibility:visible;display:inline;overflow:visible;enable-background:accumulate"
       d="M 98.53302,99.182652 222.59558,120.63251 189.43978,227.2171 41.740817,196.97413 98.53302,99.182652 z"
       id="path2588"
       sodipodi:nodetypes="ccccc" />
    <path
       style="opacity:0.54751132;fill:#73da0e;fill-opacity:1;fill-rule:evenodd;stroke:none;stroke-width:3.88474703;marker:none;visibility:visible;display:inline;overflow:visible;enable-background:accumulate"
       d="M 92.700779,19.442739 220.70081,38.194356 183.54111,120.07192 29.201522,94.71176 92.700779,19.442739 z"
       id="path2590"
       sodipodi:nodetypes="ccccc" />
  </g>
  <g
     style="display:none"
     inkscape:label="horizontal_05"
     id="layer8"
     inkscape:groupmode="layer"
     sodipodi:insensitive="true">
    <path
       style="opacity:0.54751132;fill:#73da0e;fill-opacity:1;fill-rule:evenodd;stroke:none;stroke-width:3.88474703;marker:none;visibility:visible;display:inline;overflow:visible;enable-background:accumulate"
       d="M 97.600799,87.823368 222.45747,108.61722 188.54209,211.9563 40.428802,182.33481 97.600799,87.823368 z"
       id="path2595"
       sodipodi:nodetypes="ccccc" />
    <path
       style="opacity:0.54751132;fill:#73da0e;fill-opacity:1;fill-rule:evenodd;stroke:none;stroke-width:3.88474703;marker:none;visibility:visible;display:inline;overflow:visible;enable-background:accumulate"
       d="M 93.513259,31.099966 220.89613,49.815453 184.29795,135.59925 30.861679,109.16488 93.513259,31.099966 z"
       id="path2597"
       sodipodi:nodetypes="ccccc" />
  </g>
  <g
     style="display:none"
     inkscape:label="horizontal_03"
     id="layer11"
     inkscape:groupmode="layer"
     sodipodi:insensitive="true">
    <path
       sodipodi:nodetypes="cccc"
       id="path2500"
       d="m 97.191271,76.222398 c 0,0 124.948749,20.563668 124.948749,20.563668 0,0 -34.28367,100.128114 -34.28367,100.128114 0,0 -149.79359,-28.8504 -149.79359,-28.8504"
       style="opacity:0.54751132;fill:#73da0e;fill-opacity:1;fill-rule:evenodd;stroke:none;stroke-width:3.88474703;marker:none;visibility:visible;display:inline;overflow:visible;enable-background:accumulate" />
    <path
       style="opacity:0.54751132;fill:#73da0e;fill-opacity:1;fill-rule:evenodd;stroke:none;stroke-width:3.88474703;marker:none;visibility:visible;display:inline;overflow:visible;enable-background:accumulate"
       d="M 94.230719,42.908811 221.43521,61.492948 185.31012,150.57252 32.84646,124.16201 94.230719,42.908811 z"
       id="path2602"
       sodipodi:nodetypes="ccccc" />
  </g>
  <g
     style="display:none"
     inkscape:label="horizontal_01"
     id="layer12"
     inkscape:groupmode="layer"
     sodipodi:insensitive="true">
    <path
       sodipodi:nodetypes="cccc"
       id="path2502"
       d="m 96.453904,64.80557 c 0,0 125.439796,20.256764 125.439796,20.256764 0,0 -34.95886,96.629406 -34.95886,96.629406 0,0 -150.652922,-28.23659 -150.652922,-28.23659"
       style="opacity:0.54751132;fill:#73da0e;fill-opacity:1;fill-rule:evenodd;stroke:none;stroke-width:3.88474703;marker:none;visibility:visible;display:inline;overflow:visible;enable-background:accumulate" />
    <path
       sodipodi:nodetypes="cccc"
       id="path2504"
       d="m 95.716536,53.388743 c 0,0 125.930834,19.94986 125.930834,19.94986 0,0 -35.63404,93.130707 -35.63404,93.130707 0,0 -151.512253,-27.62279 -151.512253,-27.62279"
       style="opacity:0.54751132;fill:#73da0e;fill-opacity:1;fill-rule:evenodd;stroke:none;stroke-width:3.88474703;marker:none;visibility:visible;display:inline;overflow:visible;enable-background:accumulate" />
  </g>
  <g
     inkscape:groupmode="layer"
     id="layer10"
     inkscape:label="objects"
     style="display:inline">
    <path
       id="path2437"
       style="fill:none;fill-opacity:1;stroke:#000000;stroke-width:0.2665045;stroke-opacity:1"
       d="M 78.673425,91.117569 C 78.413737,91.067696 78.165479,91.079994 77.957304,91.174927 C 77.40225,91.427959 77.359645,92.148902 77.87004,92.781848 C 77.87004,92.781848 86.433582,103.43842 86.433582,103.43842 C 74.908208,106.27786 67.486578,113.98729 67.598506,124.41353 C 67.598506,124.41353 148.71688,138.36789 148.71688,138.36789 C 146.85061,127.30922 137.7248,116.60007 125.30565,109.75389 C 125.30565,109.75389 132.11906,101.39978 132.11906,101.39978 C 132.52344,100.90066 132.35591,100.13243 131.7371,99.684542 C 131.11722,99.238814 130.29073,99.279582 129.88229,99.777827 C 129.88229,99.777827 122.81229,108.45257 122.81229,108.45257 C 117.4753,105.83855 111.61312,103.92109 105.53321,102.94176 C 99.455098,101.96272 93.783401,102.01347 88.771774,102.9338 C 88.771774,102.9338 79.883699,91.859175 79.883699,91.859175 C 79.563356,91.463391 79.106283,91.200698 78.673425,91.117569 C 78.673425,91.117569 78.673425,91.117569 78.673425,91.117569 M 89.29117,110.88283 C 91.790615,111.29573 93.97933,113.3844 94.190586,115.53987 C 94.402054,117.69749 92.561675,119.11236 90.073305,118.69377 C 87.584238,118.27506 85.382891,116.18794 85.1627,114.03487 C 84.942887,111.8855 86.791738,110.46993 89.29117,110.88283 C 89.29117,110.88283 89.29117,110.88283 89.29117,110.88283 M 124.34431,116.67349 C 126.8441,117.08644 129.00546,119.1943 129.18355,121.37339 C 129.36182,123.55466 127.49695,124.98917 125.00609,124.57015 C 122.51523,124.15114 120.34262,122.04513 120.15565,119.86839 C 119.969,117.6954 121.84523,116.26065 124.34431,116.67349 C 124.34431,116.67349 124.34431,116.67349 124.34431,116.67349 M 53.745839,126.74647 C 48.719923,125.87228 45.094809,128.7203 45.63237,133.09907 C 45.63237,133.09907 49.435709,164.0796 49.435709,164.0796 C 49.973419,168.45958 54.385021,172.78028 59.305189,173.73012 C 64.224314,174.67976 67.804547,171.87583 67.302696,167.46998 C 67.302696,167.46998 63.753245,136.30859 63.753245,136.30859 C 63.24875,131.90378 58.769276,127.62024 53.745839,126.74647 C 53.745839,126.74647 53.745839,126.74647 53.745839,126.74647 M 163.47142,145.83187 C 158.44834,144.95816 154.63356,147.92895 154.95463,152.46192 C 154.95463,152.46192 157.22627,184.53354 157.22627,184.53354 C 157.54743,189.06777 161.79736,193.51631 166.71439,194.46555 C 171.63143,195.41478 175.37856,192.48404 175.09327,187.92392 C 175.09327,187.92392 173.07552,155.67145 173.07552,155.67145 C 172.79069,151.11298 168.49484,146.70563 163.47142,145.83187 C 163.47142,145.83187 163.47142,145.83187 163.47142,145.83187 M 68.341207,129.52042 C 68.341207,129.52042 74.688418,186.56864 74.688418,186.56864 C 75.065428,189.95717 78.463514,193.31846 82.270494,194.07913 C 82.270494,194.07913 90.140637,195.65166 90.140637,195.65166 C 90.140637,195.65166 91.955012,213.10453 91.955012,213.10453 C 92.415964,217.53853 96.701575,221.96042 101.52724,222.97663 C 106.35121,223.99247 109.91954,221.19759 109.4945,216.73802 C 109.4945,216.73802 107.82148,199.18445 107.82148,199.18445 C 107.82148,199.18445 121.57805,201.93314 121.57805,201.93314 C 121.57805,201.93314 123.14109,219.56504 123.14109,219.56504 C 123.53819,224.04452 127.76339,228.50152 132.58702,229.51729 C 137.41065,230.53307 141.03112,227.70136 140.66991,223.19632 C 140.66991,223.19632 139.24814,205.46378 139.24814,205.46378 C 139.24814,205.46378 147.12904,207.03846 147.12904,207.03846 C 150.93154,207.79823 153.81201,205.5984 153.55785,202.125 C 153.55785,202.125 149.27582,143.60568 149.27582,143.60568 C 149.27582,143.60568 68.341207,129.52042 68.341207,129.52042 C 68.341207,129.52042 68.341207,129.52042 68.341207,129.52042 M 81.746526,144.92745 C 82.415621,145.04748 83.093544,145.22186 83.78292,145.46288 C 84.472206,145.70403 85.121057,145.98032 85.740683,146.28737 C 86.360208,146.59456 86.916782,146.91853 87.408849,147.24996 C 87.900793,147.58152 88.232728,147.83658 88.395988,148.01493 C 88.559194,148.19335 88.663344,148.32744 88.719,148.4237 C 88.774594,148.52002 88.82973,148.64202 88.874706,148.78342 C 88.919646,148.9249 88.955959,149.09316 88.991099,149.28769 C 89.026189,149.48228 89.058039,149.73144 89.089051,150.03504 C 89.118437,150.32271 89.134393,150.57226 89.133958,150.79173 C 89.133508,151.01125 89.123189,151.19036 89.092128,151.33369 C 89.061067,151.47709 89.006646,151.57924 88.928635,151.63562 C 88.850624,151.69207 88.751125,151.70762 88.642491,151.68788 C 88.471725,151.65689 88.19341,151.50384 87.805662,151.21397 C 87.417808,150.92421 86.952317,150.58553 86.395517,150.21042 C 85.838526,149.83545 85.180377,149.47004 84.433937,149.10797 C 83.687339,148.74605 82.865225,148.48406 81.964103,148.3212 C 81.12512,148.16963 80.406504,148.15307 79.809709,148.27176 C 79.213022,148.39039 78.729182,148.59792 78.366422,148.90699 C 78.003793,149.21601 77.756337,149.62049 77.611192,150.10922 C 77.466134,150.59791 77.420274,151.13763 77.483865,151.7266 C 77.576664,152.58625 77.851342,153.36296 78.305594,154.05481 C 78.759621,154.74687 79.335996,155.38827 80.02964,155.98425 C 80.722997,156.58044 81.501293,157.15762 82.363576,157.70732 C 83.225542,158.25726 84.107427,158.81138 85.000592,159.3754 C 85.893413,159.93971 86.768324,160.53964 87.637894,161.17844 C 88.50703,161.81752 89.296311,162.53041 90.005212,163.31269 C 90.713655,164.09527 91.312395,164.97218 91.797684,165.94889 C 92.282589,166.92584 92.588188,168.03515 92.712976,169.26629 C 92.860371,170.72129 92.732609,171.96506 92.332722,173.00228 C 91.933325,174.03911 91.315149,174.86344 90.482449,175.47964 C 89.650377,176.09536 88.640802,176.48498 87.447137,176.64695 C 86.25388,176.80857 84.946204,176.75187 83.519729,176.47764 C 82.522725,176.28599 81.589774,176.02378 80.719628,175.68501 C 79.84933,175.34632 79.061457,174.98501 78.366366,174.60232 C 77.671105,174.21972 77.087599,173.85034 76.605201,173.49321 C 76.122695,173.13619 75.78015,172.845 75.582592,172.62045 C 75.385005,172.39592 75.227245,172.12592 75.110359,171.81571 C 74.993451,171.50553 74.903804,171.10244 74.84946,170.6097 C 74.81091,170.26004 74.8033,169.98049 74.808632,169.75587 C 74.813984,169.53124 74.831207,169.34554 74.876961,169.21416 C 74.922714,169.08281 74.986924,168.99805 75.073076,168.95992 C 75.159245,168.9218 75.267565,168.9122 75.390608,168.93554 C 75.60595,168.97641 75.929776,169.17762 76.351568,169.5224 C 76.77325,169.86724 77.302264,170.25719 77.951849,170.69233 C 78.601245,171.1276 79.383349,171.56779 80.281628,172.01183 C 81.179688,172.45604 82.194542,172.78192 83.331402,172.99883 C 84.191715,173.16298 84.967477,173.1961 85.65678,173.09314 C 86.346212,172.99004 86.921664,172.76288 87.390853,172.42203 C 87.860222,172.08105 88.200937,171.62328 88.411651,171.03722 C 88.62254,170.45105 88.684845,169.75003 88.600685,168.93568 C 88.509927,168.05747 88.238129,167.26476 87.78838,166.5697 C 87.338376,165.8748 86.769253,165.23289 86.087802,164.64373 C 85.406059,164.05479 84.649235,163.49188 83.79784,162.94989 C 82.946165,162.40816 82.068866,161.85546 81.176321,161.29098 C 80.283453,160.72675 79.414,160.12692 78.557409,159.48416 C 77.700462,158.84169 76.917016,158.12976 76.210389,157.34423 C 75.503381,156.55899 74.899992,155.67617 74.406872,154.70502 C 73.913449,153.73415 73.597672,152.62494 73.459609,151.36896 C 73.31807,150.08125 73.426749,148.97324 73.773947,148.04659 C 74.12158,147.11971 74.659572,146.38126 75.401131,145.84427 C 76.14321,145.30696 77.064548,144.96738 78.153812,144.81164 C 79.243432,144.6557 80.439431,144.69309 81.746526,144.92745 C 81.746526,144.92745 81.746526,144.92745 81.746526,144.92745 M 95.077808,147.62213 C 95.513455,147.70034 95.859095,147.77678 96.118169,147.84684 C 96.377243,147.91696 96.57969,147.99034 96.726002,148.07953 C 96.872311,148.16877 96.991185,148.2816 97.071438,148.39828 C 97.151665,148.51503 97.230879,148.65943 97.308818,148.83082 C 97.308818,148.83082 108.42723,176.62402 108.42723,176.62402 C 108.42723,176.62402 108.44902,176.62817 108.44902,176.62817 C 108.44902,176.62817 114.41004,151.95306 114.41004,151.95306 C 114.44073,151.78426 114.4839,151.64641 114.53602,151.54479 C 114.5881,151.44322 114.6925,151.36818 114.84232,151.33164 C 114.99208,151.29513 115.20364,151.29579 115.48155,151.32185 C 115.75941,151.34796 116.12504,151.39904 116.59181,151.48276 C 117.07409,151.56934 117.46018,151.65647 117.7438,151.74702 C 118.02737,151.83763 118.22671,151.95276 118.3378,152.08381 C 118.44884,152.21491 118.50698,152.38905 118.50282,152.6026 C 118.49865,152.81621 118.44001,153.08607 118.34693,153.41853 C 118.34693,153.41853 111.19659,180.63423 111.19659,180.63423 C 111.15161,180.79933 111.08398,180.93144 110.98704,181.02337 C 110.89008,181.1153 110.75135,181.17255 110.56557,181.20003 C 110.37981,181.2275 110.13578,181.22732 109.83888,181.19396 C 109.54198,181.16061 109.16749,181.10312 108.72263,181.01766 C 108.3851,180.95281 108.09489,180.89542 107.84101,180.83877 C 107.58712,180.78211 107.36934,180.71301 107.1822,180.64553 C 106.99506,180.57805 106.82787,180.51211 106.69366,180.44693 C 106.55942,180.38175 106.45083,180.31098 106.35268,180.2291 C 106.25449,180.14721 106.16427,180.0511 106.10216,179.9525 C 106.04002,179.8539 105.98855,179.74259 105.93026,179.60533 C 105.93026,179.60533 93.297558,148.87869 93.297558,148.87869 C 93.137952,148.50428 93.05447,148.21171 93.025068,147.99425 C 92.995648,147.77688 93.034343,147.62179 93.163131,147.53489 C 93.291979,147.44804 93.517572,147.4211 93.825521,147.4449 C 94.133526,147.46876 94.548821,147.52724 95.077808,147.62213 C 95.077808,147.62213 95.077808,147.62213 95.077808,147.62213 M 144.27597,156.52815 C 144.61821,156.58959 144.92145,156.66039 145.17284,156.73758 C 145.4242,156.81483 145.62355,156.90143 145.7691,156.99976 C 145.91458,157.09816 146.01642,157.20002 146.08599,157.30879 C 146.15551,157.41763 146.20026,157.52733 146.20885,157.64121 C 146.20885,157.64121 148.39761,186.78919 148.39761,186.78919 C 148.422,187.11463 148.38993,187.37707 148.30732,187.58577 C 148.22465,187.79444 148.108,187.95544 147.95793,188.07096 C 147.80782,188.18645 147.63244,188.25431 147.43795,188.28108 C 147.24339,188.30783 147.04675,188.30278 146.84734,188.26448 C 146.84734,188.26448 145.58605,188.02221 145.58605,188.02221 C 145.18718,187.94559 144.83842,187.84092 144.53242,187.69407 C 144.22635,187.54724 143.92215,187.32547 143.63544,187.03834 C 143.3486,186.75125 143.05599,186.37982 142.75583,185.92227 C 142.45552,185.46478 142.12457,184.88864 141.75255,184.19369 C 141.75255,184.19369 130.86886,164.52871 130.86886,164.52871 C 130.29691,163.51502 129.7223,162.45457 129.13433,161.351 C 128.54592,160.24779 127.99456,159.17647 127.47987,158.14312 C 127.47987,158.14312 127.42487,158.13315 127.42487,158.13315 C 127.5537,159.30344 127.68398,160.49795 127.80134,161.71393 C 127.91869,162.92996 128.02636,164.13666 128.12685,165.33365 C 128.12685,165.33365 129.71749,184.28189 129.71749,184.28189 C 129.72699,184.39511 129.70004,184.502 129.64751,184.59536 C 129.59496,184.68873 129.50453,184.75258 129.36356,184.78119 C 129.22257,184.80981 129.03398,184.8223 128.79961,184.81705 C 128.56525,184.81181 128.25942,184.77094 127.89125,184.70021 C 127.52307,184.62948 127.22503,184.55434 126.98383,184.46826 C 126.74257,184.38218 126.54881,184.2963 126.40591,184.21323 C 126.26297,184.13017 126.15089,184.02754 126.08053,183.91074 C 126.01015,183.79396 125.97475,183.67528 125.96509,183.56219 C 125.96509,183.56219 123.48491,154.63216 123.48491,154.63216 C 123.42951,153.98594 123.56554,153.5525 123.88422,153.33927 C 124.20298,153.12605 124.55836,153.05659 124.96286,153.12917 C 124.96286,153.12917 126.88146,153.47357 126.88146,153.47357 C 127.33261,153.5546 127.70583,153.65742 128.01595,153.79276 C 128.32604,153.92816 128.6086,154.11072 128.8652,154.34013 C 129.12172,154.56961 129.38254,154.87689 129.63554,155.24928 C 129.8884,155.62177 130.17149,156.08471 130.47714,156.63427 C 130.47714,156.63427 138.88348,171.7785 138.88348,171.7785 C 139.39793,172.70585 139.90029,173.61106 140.3801,174.4925 C 140.85954,175.37417 141.32169,176.24 141.7679,177.09193 C 142.21376,177.94404 142.64656,178.78543 143.08237,179.61208 C 143.51785,180.43892 143.95337,181.2685 144.38133,182.10237 C 144.38133,182.10237 144.40313,182.10651 144.40313,182.10651 C 144.27371,180.81666 144.15447,179.47131 144.04002,178.08019 C 143.92547,176.6891 143.81985,175.35601 143.7212,174.07199 C 143.7212,174.07199 142.40588,156.9575 142.40588,156.9575 C 142.39712,156.84376 142.4152,156.7455 142.46994,156.65913 C 142.52464,156.57281 142.6279,156.5079 142.77009,156.46126 C 142.91225,156.41468 143.10375,156.39829 143.34244,156.40903 C 143.58109,156.41982 143.88699,156.45836 144.27597,156.52815 C 144.27597,156.52815 144.27597,156.52815 144.27597,156.52815"
       sodipodi:nodetypes="csccccccsccscccccssscccssscccccscccccccscccccccccsccccsccccccccssssssssssssssssssssssssssssssssssssssssssssssssssssssssssssscccsssccccsssssssccsssssssssccssscccsssccsssccsssccsccsccsssssssccsccsssccsssccsccsssccc" />
    <path
       d="M 138.78133,118.26309 C 138.57832,118.22003 138.35697,118.22604 138.13283,118.29762 C 137.53475,118.48835 137.16865,119.05457 137.32492,119.55996 C 137.32492,119.55996 140.05748,128.08448 140.05748,128.08448 C 128.48221,130.11403 118.09275,136.0136 113.14419,144.1772 C 113.14419,144.1772 182.24347,156.96653 182.24347,156.96653 C 184.39304,148.08494 180.08131,139.37186 171.70425,133.71723 C 171.70425,133.71723 180.71793,127.15952 180.71793,127.15952 C 181.2467,126.76676 181.38319,126.15171 181.01727,125.78636 C 180.65031,125.4228 179.92867,125.44455 179.39572,125.83642 C 179.39572,125.83642 170.01759,132.64306 170.01759,132.64306 C 166.3645,130.48302 162.00474,128.87133 157.08829,128.00161 C 152.1733,127.13215 147.17139,127.08212 142.35058,127.72608 C 142.35058,127.72608 139.49749,118.86441 139.49749,118.86441 C 139.39797,118.54827 139.11973,118.33487 138.78133,118.26309 C 138.78133,118.26309 138.78133,118.26309 138.78133,118.26309 M 139.30668,134.00031 C 141.36845,134.3716 142.42379,136.05944 141.67706,137.76397 C 140.92957,139.47022 138.63826,140.54975 136.55595,140.17007 C 134.47305,139.79028 133.40564,138.10342 134.17626,136.40472 C 134.94557,134.70893 137.24491,133.62902 139.30668,134.00031 C 139.30668,134.00031 139.30668,134.00031 139.30668,134.00031 M 168.22172,139.20736 C 170.28378,139.5787 171.41007,141.29412 170.75081,143.03257 C 170.09089,144.77278 167.87282,145.88029 165.78842,145.50022 C 163.70401,145.12016 162.56702,143.40601 163.25002,141.67332 C 163.93185,139.94361 166.16025,138.83612 168.22172,139.20736 C 168.22172,139.20736 168.22172,139.20736 168.22172,139.20736 M 98.927437,145.66819 C 94.608268,144.86296 89.649281,146.98531 87.840064,150.40147 C 87.840064,150.40147 75.039535,174.57137 75.039535,174.57137 C 73.229815,177.98847 75.477847,181.49895 80.077178,182.41278 C 84.675536,183.32641 89.794033,181.26532 91.509202,177.81126 C 91.509202,177.81126 103.64012,153.38164 103.64012,153.38164 C 105.35224,149.92833 103.24447,146.47303 98.927437,145.66819 C 98.927437,145.66819 98.927437,145.66819 98.927437,145.66819 M 193.22338,163.248 C 188.90665,162.44322 184.39918,164.7431 183.16094,168.38071 C 183.16094,168.38071 174.40016,194.11742 174.40016,194.11742 C 173.16158,197.75602 175.88602,201.4488 180.48243,202.36205 C 185.07884,203.27529 189.72585,201.03289 190.86985,197.3573 C 190.86985,197.3573 198.961,171.36089 198.961,171.36089 C 200.10491,167.68664 197.54041,164.05283 193.22338,163.248 C 193.22338,163.248 193.22338,163.248 193.22338,163.248 M 111.35579,148.19068 C 111.35579,148.19068 89.554106,192.97963 89.554106,192.97963 C 88.259131,195.63999 90.184392,198.39613 93.844649,199.13756 C 93.844649,199.13756 101.41145,200.67029 101.41145,200.67029 C 101.41145,200.67029 95.085192,214.42741 95.085192,214.42741 C 93.477976,217.92248 96.100781,221.57678 100.9456,222.586 C 105.7887,223.59487 110.94488,221.54722 112.45738,218.01541 C 112.45738,218.01541 118.41083,204.1137 118.41083,204.1137 C 118.41083,204.1137 131.63718,206.79284 131.63718,206.79284 C 131.63718,206.79284 125.9738,220.80706 125.9738,220.80706 C 124.53499,224.36744 127.28582,228.07294 132.12859,229.08174 C 136.97135,230.09053 141.99125,227.98997 143.33541,224.39287 C 143.33541,224.39287 148.62621,210.23416 148.62621,210.23416 C 148.62621,210.23416 156.20336,211.76899 156.20336,211.76899 C 159.8593,212.50954 163.61409,210.85327 164.58483,208.06945 C 164.58483,208.06945 180.93972,161.16798 180.93972,161.16798 C 180.93972,161.16798 111.35579,148.19068 111.35579,148.19068 C 111.35579,148.19068 111.35579,148.19068 111.35579,148.19068 M 116.79049,160.60439 C 117.3797,160.71643 117.95209,160.87138 118.50469,161.07898 C 119.05742,161.28671 119.55518,161.52101 120.01095,161.77873 C 120.46696,162.03662 120.85494,162.30606 121.17768,162.57969 C 121.50063,162.85348 121.70444,163.06289 121.78057,163.20748 C 121.85671,163.35213 121.89609,163.46036 121.90592,163.53754 C 121.91567,163.61476 121.91328,163.71217 121.8922,163.82456 C 121.87108,163.93701 121.82941,164.07029 121.7746,164.22419 C 121.71975,164.37814 121.63685,164.5749 121.52829,164.81445 C 121.42542,165.04143 121.32692,165.23806 121.22625,165.4106 C 121.12553,165.58318 121.03366,165.72372 120.93797,165.83554 C 120.84224,165.94742 120.74262,166.02623 120.64097,166.06839 C 120.53929,166.1106 120.43539,166.12008 120.33877,166.10155 C 120.18686,166.07247 119.98635,165.94446 119.74235,165.70593 C 119.49848,165.46751 119.20201,165.18855 118.83406,164.8785 C 118.46636,164.56862 117.99657,164.26354 117.44007,163.95872 C 116.88395,163.65411 116.20841,163.42592 115.41001,163.27339 C 114.66662,163.13143 113.97642,163.09868 113.34031,163.17529 C 112.70383,163.25181 112.13441,163.40108 111.63405,163.63324 C 111.13328,163.86529 110.69877,164.17533 110.32344,164.55419 C 109.94784,164.93299 109.64455,165.35454 109.42474,165.81779 C 109.10388,166.49393 109.00161,167.11036 109.11721,167.66561 C 109.23334,168.22111 109.49515,168.74062 109.8953,169.2281 C 110.29616,169.71588 110.79102,170.1914 111.38302,170.64799 C 111.97576,171.10492 112.58742,171.56586 113.2068,172.03505 C 113.82696,172.50461 114.41403,173.00177 114.9791,173.52946 C 115.54505,174.05753 115.99915,174.64136 116.34299,175.27748 C 116.68775,175.91401 116.8816,176.62152 116.91812,177.40418 C 116.95541,178.18718 116.75414,179.06882 116.31664,180.04065 C 115.79952,181.18919 115.10167,182.16284 114.22245,182.96519 C 113.34181,183.76699 112.33514,184.39438 111.20438,184.85089 C 110.07186,185.30673 108.86141,185.57881 107.56763,185.66578 C 106.27264,185.75229 104.96247,185.66351 103.63358,185.40011 C 102.70477,185.21602 101.8755,184.97886 101.14776,184.68392 C 100.42038,184.38912 99.788926,184.07948 99.26343,183.75634 C 98.738339,183.43336 98.321733,183.12456 98.003053,182.82887 C 97.684673,182.5333 97.47743,182.294 97.385843,182.11173 C 97.294336,181.9295 97.265986,181.71308 97.299232,181.46661 C 97.332547,181.22017 97.439443,180.90201 97.626454,180.51495 C 97.759171,180.24028 97.888901,180.02147 98.004751,179.84601 C 98.12059,179.67057 98.229353,179.52594 98.34037,179.42472 C 98.451344,179.32352 98.558138,179.25936 98.664307,179.23238 C 98.770451,179.20541 98.885076,179.20147 98.99849,179.22377 C 99.196961,179.26283 99.42706,179.43086 99.686609,179.71444 C 99.946414,179.99814 100.29365,180.32071 100.742,180.68271 C 101.1908,181.04489 101.77289,181.41542 102.4721,181.79293 C 103.17188,182.17067 104.04799,182.4597 105.10062,182.66743 C 105.89717,182.82463 106.66984,182.87629 107.4186,182.81831 C 108.16692,182.76016 108.85731,182.60084 109.49254,182.34874 C 110.12721,182.09644 110.68549,181.74818 111.17154,181.29491 C 111.65717,180.84149 112.04596,180.29305 112.3398,179.65093 C 112.65667,178.95846 112.75241,178.32744 112.62508,177.76761 C 112.49828,177.208 112.22857,176.6864 111.823,176.20285 C 111.4181,175.71959 110.92715,175.25458 110.33312,174.80323 C 109.73983,174.35219 109.12734,173.89191 108.50647,173.42209 C 107.88639,172.9526 107.30789,172.45609 106.76413,171.92651 C 106.2213,171.39732 105.78639,170.81614 105.4648,170.17985 C 105.14421,169.54396 104.97507,168.83497 104.9593,168.06032 C 104.94438,167.28604 105.17305,166.40885 105.64851,165.42205 C 106.136,164.41031 106.78082,163.5463 107.56948,162.83082 C 108.35703,162.11496 109.23704,161.55169 110.21584,161.15155 C 111.19331,160.75093 112.24789,160.50987 113.37566,160.41721 C 114.50243,160.32424 115.6394,160.38559 116.79049,160.60439 C 116.79049,160.60439 116.79049,160.60439 116.79049,160.60439 M 128.39527,163.07565 C 128.77913,163.14868 129.07728,163.21796 129.29513,163.27995 C 129.51297,163.34199 129.67499,163.40511 129.77614,163.47922 C 129.87728,163.55339 129.9417,163.64542 129.96733,163.73949 C 129.99292,163.83362 130.00538,163.94951 130.00475,164.08664 C 130.00475,164.08664 128.83713,186.33477 128.83713,186.33477 C 128.83713,186.33477 128.85726,186.33874 128.85726,186.33874 C 128.85726,186.33874 145.07538,166.99771 145.07538,166.99771 C 145.17406,166.86481 145.27193,166.75675 145.36346,166.6776 C 145.45489,166.59847 145.5854,166.54171 145.74345,166.51659 C 145.90141,166.49148 146.10312,166.49739 146.35774,166.52509 C 146.6123,166.55284 146.94039,166.60259 147.35168,166.68079 C 147.77661,166.76163 148.10957,166.84048 148.34344,166.91944 C 148.57726,166.99845 148.72089,167.09478 148.77396,167.20149 C 148.82698,167.30825 148.8122,167.44779 148.72206,167.617 C 148.63186,167.78625 148.46686,167.9987 148.24356,168.25989 C 148.24356,168.25989 129.91352,189.59105 129.91352,189.59105 C 129.79765,189.72002 129.67288,189.82218 129.53554,189.89165 C 129.39813,189.96111 129.2332,190.00179 129.0333,190.01742 C 128.83336,190.03304 128.58619,190.02492 128.29962,189.98885 C 128.01303,189.95278 127.65813,189.89511 127.24393,189.81305 C 126.92966,189.75078 126.66014,189.69594 126.42717,189.64288 C 126.1942,189.58983 126.00325,189.52814 125.84269,189.46874 C 125.68216,189.40934 125.54122,189.35183 125.4334,189.29598 C 125.32559,189.24015 125.24624,189.18075 125.18233,189.11292 C 125.1184,189.0451 125.06877,188.96632 125.04875,188.8865 C 125.0287,188.80668 125.02504,188.71718 125.02578,188.607 C 125.02578,188.607 126.12048,164.01813 126.12048,164.01813 C 126.13451,163.71914 126.1853,163.48659 126.25453,163.31462 C 126.32371,163.14271 126.4305,163.02164 126.59336,162.95662 C 126.7562,162.89164 126.9852,162.87636 127.27065,162.9032 C 127.55608,162.93008 127.92917,162.98703 128.39527,163.07565 C 128.39527,163.07565 128.39527,163.07565 128.39527,163.07565 M 171.71691,171.38176 C 172.01849,171.43915 172.27985,171.50305 172.48994,171.5708 C 172.7,171.6386 172.85759,171.71261 172.96016,171.79468 C 173.06267,171.87681 173.12271,171.96065 173.1498,172.04924 C 173.17685,172.13787 173.18016,172.22658 173.14777,172.31776 C 173.14777,172.31776 164.85081,195.65497 164.85081,195.65497 C 164.75814,195.91554 164.63177,196.12406 164.47421,196.28812 C 164.31654,196.45214 164.14201,196.57704 163.95039,196.6646 C 163.75865,196.75212 163.55879,196.80083 163.35458,196.81614 C 163.15027,196.83143 162.95535,196.82128 162.76971,196.7845 C 162.76971,196.7845 161.5955,196.55187 161.5955,196.55187 C 161.22415,196.47831 160.91327,196.38393 160.66071,196.25726 C 160.40818,196.13062 160.18516,195.94429 160.00389,195.70643 C 159.8227,195.46862 159.66707,195.16342 159.53604,194.78939 C 159.4052,194.41545 159.28812,193.94604 159.17467,193.38077 C 159.17467,193.38077 155.91217,177.4118 155.91217,177.4118 C 155.74924,176.59031 155.60339,175.73177 155.46299,174.83879 C 155.32378,173.94632 155.20954,173.08038 155.11727,172.24576 C 155.11727,172.24576 155.06839,172.23641 155.06839,172.23641 C 154.73653,173.16972 154.39675,174.12234 154.03627,175.09168 C 153.67583,176.06108 153.30969,177.02279 152.94039,177.9766 C 152.94039,177.9766 147.0944,193.07534 147.0944,193.07534 C 147.05947,193.16556 146.99037,193.24959 146.90085,193.32207 C 146.81128,193.39454 146.69518,193.44236 146.54207,193.46059 C 146.38889,193.47882 146.19413,193.48273 145.96025,193.47107 C 145.72634,193.45942 145.43452,193.4172 145.09171,193.34928 C 144.7489,193.28136 144.4785,193.21219 144.26976,193.13616 C 144.06098,193.06012 143.90001,192.98578 143.78918,192.91529 C 143.67833,192.84481 143.60642,192.75981 143.58223,192.6649 C 143.55801,192.57 143.5698,192.47471 143.60527,192.38469 C 143.60527,192.38469 152.67,169.35421 152.67,169.35421 C 152.87248,168.83977 153.17343,168.49909 153.56126,168.33784 C 153.94885,168.17655 154.31449,168.13032 154.671,168.19811 C 154.671,168.19811 156.36196,168.51976 156.36196,168.51976 C 156.75957,168.59543 157.07462,168.68648 157.31715,168.8018 C 157.55969,168.91719 157.75795,169.06939 157.91358,169.25821 C 158.06923,169.4471 158.19923,169.69798 158.29695,170.00048 C 158.39476,170.30307 158.48695,170.6784 158.56782,171.12325 C 158.56782,171.12325 160.95922,183.40374 160.95922,183.40374 C 161.1166,184.15711 161.27166,184.89267 161.41467,185.6088 C 161.5584,186.32523 161.69213,187.0287 161.81639,187.72074 C 161.94129,188.41305 162.05829,189.09657 162.18465,189.76854 C 162.31161,190.44077 162.43859,191.11532 162.5575,191.79318 C 162.5575,191.79318 162.5776,191.79713 162.5776,191.79713 C 162.92078,190.76448 163.29441,189.68787 163.68955,188.5749 C 164.0846,187.46196 164.46729,186.39554 164.83892,185.36847 C 164.83892,185.36847 169.79189,171.67879 169.79189,171.67879 C 169.82477,171.58781 169.87749,171.50985 169.9606,171.44227 C 170.04365,171.37471 170.1649,171.32544 170.31635,171.29168 C 170.46772,171.25798 170.65483,171.24956 170.87677,171.26395 C 171.09865,171.27839 171.3741,171.31659 171.71691,171.38176 C 171.71691,171.38176 171.71691,171.38176 171.71691,171.38176"
       style="fill:none;fill-opacity:1;stroke:#000000;stroke-width:0.63355321;stroke-opacity:1"
       id="path3351"
       sodipodi:nodetypes="csccccccsccscccccssscccssscccccscccccccscccccccccsccccsccccccccssssssssssssssssssssssssssssssssssssssssssssssssssssssssssssscccsssccccsssssssccsssssssssccssscccsssccsssccsssccsccsccsssssssccsccsssccsssccsccssscc" />
    <path
       id="path2710"
       style="fill:none;fill-opacity:1;stroke:#000000;stroke-width:0.53583401;stroke-opacity:1"
       d="M 84.895792,82.497086 C 84.63938,82.450444 84.394046,82.464241 84.188013,82.558149 C 83.638698,82.808488 83.594052,83.510482 84.096077,84.122808 C 84.096077,84.122808 92.516081,94.43383 92.516081,94.43383 C 81.124218,97.278802 73.773353,104.83194 73.853426,114.97569 C 73.853426,114.97569 153.84166,128.01912 153.84166,128.01912 C 152.06557,117.25535 143.11527,106.88495 130.88465,100.3046 C 130.88465,100.3046 137.6625,92.11582 137.6625,92.11582 C 138.06497,91.626525 137.9037,90.879271 137.29461,90.447514 C 136.68441,90.017873 135.86732,90.063774 135.46086,90.552234 C 135.46086,90.552234 128.42826,99.055014 128.42826,99.055014 C 123.16896,96.54754 117.38675,94.722612 111.38472,93.813019 C 105.38446,92.903695 99.781447,92.994024 94.827438,93.925927 C 94.827438,93.925927 86.08892,83.210065 86.08892,83.210065 C 85.77384,82.827175 85.323175,82.574838 84.895792,82.497086 C 84.895792,82.497086 84.895792,82.497086 84.895792,82.497086 M 95.309463,101.66031 C 97.775836,102.04477 99.928609,104.06282 100.1285,106.15976 C 100.32859,108.2588 98.506199,109.64882 96.051534,109.25838 C 93.596171,108.86783 91.430914,106.85138 91.221453,104.7572 C 91.012352,102.66662 92.843097,101.27585 95.309463,101.66031 C 95.309463,101.66031 95.309463,101.66031 95.309463,101.66031 M 129.89877,107.05206 C 132.3655,107.43658 134.48883,109.47465 134.65301,111.59622 C 134.81735,113.71993 132.96838,115.13039 130.51126,114.73956 C 128.05413,114.34873 125.91965,112.31253 125.74596,110.19366 C 125.57257,108.07844 127.43276,106.66766 129.89877,107.05206 C 129.89877,107.05206 129.89877,107.05206 129.89877,107.05206 M 60.18297,117.33532 C 55.228066,116.51735 51.647583,119.31019 52.169442,123.56499 C 52.169442,123.56499 55.861692,153.66847 55.861692,153.66847 C 56.383696,157.92445 60.718611,162.10176 65.559621,162.99862 C 70.399616,163.8953 73.930673,161.14813 73.447282,156.86517 C 73.447282,156.86517 70.028398,126.57304 70.028398,126.57304 C 69.542392,122.29112 65.135432,118.15288 60.18297,117.33532 C 60.18297,117.33532 60.18297,117.33532 60.18297,117.33532 M 168.35835,135.19314 C 163.40623,134.37563 159.6228,137.29678 159.91156,141.71243 C 159.91156,141.71243 161.95461,172.95399 161.95461,172.95399 C 162.24345,177.37087 166.40298,181.68126 171.24092,182.57756 C 176.07885,183.47385 179.79043,180.59456 179.54022,176.1507 C 179.54022,176.1507 177.77054,144.72049 177.77054,144.72049 C 177.52076,140.27824 173.31081,136.0107 168.35835,135.19314 C 168.35835,135.19314 168.35835,135.19314 168.35835,135.19314 M 74.571468,119.93961 C 74.571468,119.93961 80.669357,175.4035 80.669357,175.4035 C 81.031557,178.69793 84.365747,181.9502 88.108856,182.67044 C 88.108856,182.67044 95.846929,184.1594 95.846929,184.1594 C 95.846929,184.1594 97.576338,201.13353 97.576338,201.13353 C 98.015702,205.44589 102.21384,209.72849 106.95321,210.6946 C 111.69091,211.66036 115.20901,208.92266 114.80831,204.58361 C 114.80831,204.58361 113.2311,187.50445 113.2311,187.50445 C 113.2311,187.50445 126.75683,190.10706 126.75683,190.10706 C 126.75683,190.10706 128.21562,207.26794 128.21562,207.26794 C 128.58624,211.62774 132.72015,215.94712 137.45751,216.91282 C 142.19487,217.87851 145.76908,215.10239 145.43711,210.71592 C 145.43711,210.71592 144.13042,193.45008 144.13042,193.45008 C 144.13042,193.45008 151.87907,194.94107 151.87907,194.94107 C 155.61777,195.66046 158.46608,193.50105 158.23613,190.11793 C 158.23613,190.11793 154.36185,133.11957 154.36185,133.11957 C 154.36185,133.11957 74.571468,119.93961 74.571468,119.93961 C 74.571468,119.93961 74.571468,119.93961 74.571468,119.93961 M 87.743675,134.84613 C 88.402949,134.95875 89.070738,135.1242 89.749606,135.35445 C 90.42837,135.58481 91.067138,135.84966 91.676986,136.1446 C 92.286725,136.4397 92.834325,136.75152 93.318298,137.071 C 93.802136,137.39063 94.128492,137.63681 94.288814,137.80937 C 94.449083,137.98201 94.551289,138.11187 94.605822,138.20521 C 94.660292,138.29861 94.714218,138.41701 94.758051,138.55435 C 94.801854,138.69177 94.837066,138.85531 94.871009,139.04443 C 94.904916,139.2336 94.935436,139.47591 94.964933,139.7712 C 94.992882,140.05101 95.007721,140.29379 95.00652,140.5074 C 95.005299,140.72106 94.994496,140.89546 94.96336,141.03514 C 94.932239,141.1749 94.878241,141.27467 94.801134,141.33002 C 94.72404,141.38543 94.625911,141.40119 94.518892,141.38264 C 94.350673,141.35354 94.076876,141.20629 93.695663,140.92656 C 93.314345,140.64696 92.856667,140.32021 92.309093,139.95857 C 91.761306,139.59709 91.113772,139.24554 90.379168,138.89778 C 89.644408,138.55019 88.834845,138.30032 87.947087,138.1474 C 87.120528,138.00509 86.412208,137.99343 85.823538,138.1126 C 85.235,138.23174 84.757413,138.43665 84.398886,138.73963 C 84.040494,139.04256 83.795343,139.43766 83.650785,139.9141 C 83.506322,140.39051 83.459482,140.91596 83.520367,141.48867 C 83.609214,142.32458 83.877551,143.07868 84.323098,143.74914 C 84.768404,144.41981 85.334419,145.04045 86.016112,145.6162 C 86.697491,146.19218 87.462599,146.74916 88.310524,147.2789 C 89.158117,147.8089 90.025307,148.34286 90.903542,148.88639 C 91.781409,149.43022 92.641479,150.00885 93.496121,150.62534 C 94.350316,151.24214 95.125541,151.93124 95.821295,152.68838 C 96.516564,153.44584 97.103391,154.29577 97.578054,155.2435 C 98.052303,156.19149 98.349445,157.26938 98.468012,158.4669 C 98.608069,159.88217 98.477844,161.09344 98.080367,162.10523 C 97.683428,163.11662 97.071807,163.92242 96.249697,164.52686 C 95.428261,165.1308 94.432855,165.51568 93.256973,165.68003 C 92.081535,165.84404 90.794164,165.79619 89.390527,165.53735 C 88.409477,165.35645 87.491708,165.10654 86.63598,164.78178 C 85.780105,164.45712 85.005445,164.10999 84.322165,163.74154 C 83.638718,163.37319 83.065234,163.01706 82.591273,162.67233 C 82.117198,162.32768 81.78072,162.04629 81.586824,161.82894 C 81.392894,161.61161 81.238302,161.34981 81.124068,161.04868 C 81.00981,160.74756 80.922639,160.35589 80.870482,159.87682 C 80.833476,159.53685 80.826757,159.26492 80.832627,159.04636 C 80.838512,158.82779 80.855995,158.64703 80.90141,158.51895 C 80.946829,158.39088 81.010298,158.30807 81.095245,158.27047 C 81.180197,158.23289 81.286899,158.22294 81.408013,158.24494 C 81.619961,158.28348 81.938298,158.47739 82.352687,158.81043 C 82.76698,159.14355 83.286823,159.51994 83.925239,159.9396 C 84.563473,160.35943 85.332352,160.78327 86.215605,161.21023 C 87.098615,161.63736 88.096979,161.9487 89.215821,162.15332 C 90.062483,162.30815 90.826315,162.33598 91.505445,162.23185 C 92.184711,162.12761 92.752146,161.90326 93.215327,161.56888 C 93.678698,161.23436 94.015758,160.78691 94.225249,160.21536 C 94.434907,159.64369 94.498621,158.9611 94.41846,158.16906 C 94.332014,157.31493 94.066954,156.54504 93.626245,155.87124 C 93.185272,155.19761 92.626752,154.57625 91.957383,154.0069 C 91.287689,153.43777 90.543923,152.89443 89.706908,152.37204 C 88.869582,151.84988 88.007027,151.31723 87.12945,150.77322 C 86.251534,150.22947 85.396761,149.65095 84.554768,149.03059 C 83.712393,148.41053 82.942602,147.72248 82.248683,146.96236 C 81.55436,146.20256 80.962377,145.3472 80.479273,144.40526 C 79.995841,143.46361 79.687846,142.38629 79.555387,141.16512 C 79.41958,139.91308 79.529887,138.83437 79.874795,137.93064 C 80.220158,137.02667 80.752641,136.30484 81.485247,135.77775 C 82.218406,135.25034 83.127724,134.91418 84.202055,134.75586 C 85.276764,134.59731 86.455763,134.62624 87.743675,134.84613 C 87.743675,134.84613 87.743675,134.84613 87.743675,134.84613 M 100.87809,137.38515 C 101.30734,137.45854 101.64784,137.53078 101.90302,137.59735 C 102.1582,137.66398 102.35752,137.73412 102.50144,137.82003 C 102.64536,137.90598 102.76213,138.01505 102.84081,138.12814 C 102.91945,138.24129 102.99699,138.38135 103.07317,138.5477 C 103.07317,138.5477 113.91853,165.53777 113.91853,165.53777 C 113.91853,165.53777 113.93997,165.54168 113.93997,165.54168 C 113.93997,165.54168 119.92233,141.47957 119.92233,141.47957 C 119.95337,141.31499 119.99658,141.18048 120.04844,141.08119 C 120.10025,140.98194 120.20356,140.90822 120.35146,140.87168 C 120.49931,140.83517 120.70794,140.83447 120.98186,140.85807 C 121.25577,140.88173 121.61609,140.92914 122.076,141.0077 C 122.55119,141.08894 122.93152,141.17134 123.2108,141.25771 C 123.49,141.34414 123.68603,141.455 123.79498,141.58191 C 123.90385,141.70888 123.96036,141.8781 123.95525,142.0861 C 123.95012,142.29415 123.89102,142.55734 123.79767,142.8817 C 123.79767,142.8817 116.62935,169.42615 116.62935,169.42615 C 116.58435,169.58715 116.5172,169.71616 116.42134,169.80623 C 116.32546,169.89629 116.18859,169.95281 116.00552,169.98063 C 115.82246,170.00844 115.58214,170.00967 115.28989,169.97889 C 114.99764,169.94811 114.62908,169.89428 114.19133,169.81362 C 113.85921,169.75242 113.57363,169.6982 113.32384,169.64448 C 113.07406,169.59078 112.85986,169.52475 112.67584,169.46011 C 112.49182,169.39549 112.32745,169.33226 112.19553,169.26956 C 112.0636,169.20688 111.95694,169.1386 111.86062,169.05944 C 111.76425,168.98029 111.67579,168.88724 111.61502,168.7916 C 111.55421,168.69596 111.50397,168.5879 111.44711,168.45461 C 111.44711,168.45461 99.118116,138.61946 99.118116,138.61946 C 98.962156,138.25603 98.880926,137.97176 98.852762,137.76029 C 98.824558,137.54888 98.863287,137.39768 98.990591,137.31228 C 99.117948,137.22693 99.340484,137.19929 99.644031,137.22052 C 99.947627,137.24181 100.35688,137.29612 100.87809,137.38515 C 100.87809,137.38515 100.87809,137.38515 100.87809,137.38515 M 149.35296,145.74473 C 149.69017,145.80239 149.98885,145.86942 150.23637,145.94301 C 150.48384,146.01665 150.67998,146.09975 150.82296,146.19461 C 150.96588,146.28955 151.06574,146.38814 151.13372,146.49369 C 151.20167,146.59928 151.24517,146.70589 151.25297,146.8168 C 151.25297,146.8168 153.24244,175.20459 153.24244,175.20459 C 153.26462,175.52155 153.23152,175.77744 153.14894,175.98128 C 153.06631,176.18508 152.95047,176.34264 152.80198,176.45608 C 152.65344,176.56948 152.4803,176.63663 152.28854,176.66385 C 152.09673,176.69106 151.90304,176.68729 151.70682,176.65114 C 151.70682,176.65114 150.46571,176.42248 150.46571,176.42248 C 150.07321,176.35017 149.73024,176.25022 149.42961,176.10895 C 149.12892,175.96769 148.83048,175.75339 148.54964,175.47533 C 148.26866,175.19731 147.98245,174.83716 147.68928,174.39315 C 147.39595,173.94921 147.07307,173.38985 146.71037,172.715 C 146.71037,172.715 136.0889,153.62411 136.0889,153.62411 C 135.53025,152.64026 134.9692,151.61089 134.39516,150.53961 C 133.82064,149.46872 133.28246,148.42868 132.7802,147.4254 C 132.7802,147.4254 132.72602,147.41604 132.72602,147.41604 C 132.84713,148.55513 132.96954,149.71779 133.07911,150.90146 C 133.18867,152.08519 133.28872,153.25987 133.38174,154.42514 C 133.38174,154.42514 134.85427,172.87137 134.85427,172.87137 C 134.86307,172.98158 134.836,173.08586 134.7838,173.17709 C 134.73158,173.26833 134.64219,173.33104 134.5032,173.35973 C 134.36418,173.38842 134.17837,173.40168 133.94754,173.39793 C 133.71673,173.39417 133.41572,173.35614 133.05343,173.28938 C 132.69114,173.22262 132.39794,173.15117 132.1608,173.06873 C 131.92358,172.98628 131.73316,172.90376 131.59281,172.82368 C 131.45242,172.74361 131.34253,172.64431 131.2738,172.53097 C 131.20503,172.41764 131.17074,172.30226 131.16177,172.19218 C 131.16177,172.19218 128.85839,144.03104 128.85839,144.03104 C 128.80694,143.402 128.94323,142.97896 129.25855,142.76925 C 129.57396,142.55953 129.92477,142.48962 130.32333,142.55773 C 130.32333,142.55773 132.21373,142.8809 132.21373,142.8809 C 132.65825,142.95693 133.0258,143.05469 133.33096,143.18453 C 133.63607,143.31443 133.9138,143.49046 134.1657,143.71227 C 134.41748,143.93416 134.67312,144.23181 134.9207,144.59293 C 135.16815,144.95415 135.44492,145.40329 135.74349,145.93667 C 135.74349,145.93667 143.95081,160.63704 143.95081,160.63704 C 144.45282,161.53733 144.94301,162.41614 145.41108,163.27195 C 145.87876,164.128 146.32946,164.96874 146.76449,165.79602 C 147.19917,166.62351 147.62102,167.44065 148.04588,168.24342 C 148.47039,169.04638 148.89492,169.85203 149.31194,170.6619 C 149.31194,170.6619 149.3334,170.6658 149.3334,170.6658 C 149.21308,169.40988 149.10311,168.09982 148.99812,166.74514 C 148.89302,165.3905 148.7964,164.09229 148.70638,162.84187 C 148.70638,162.84187 147.50602,146.17515 147.50602,146.17515 C 147.49801,146.06438 147.5164,145.96853 147.57088,145.88403 C 147.62533,145.79956 147.72755,145.73566 147.86805,145.68929 C 148.00853,145.64299 148.19751,145.62578 148.43286,145.63471 C 148.6682,145.64368 148.96969,145.67925 149.35296,145.74473 C 149.35296,145.74473 149.35296,145.74473 149.35296,145.74473"
       sodipodi:nodetypes="csccccccsccscccccssscccssscccccscccccccscccccccccsccccsccccccccssssssssssssssssssssssssssssssssssssssssssssssssssssssssssssscccsssccccsssssssccsssssssssccssscccsssccsssccsssccsccsccsssssssccsccsssccsssccsccssscc" />
    <path
       id="path2721"
       style="fill:none;fill-opacity:1;stroke:#000000;stroke-width:0.53583401;stroke-opacity:1;display:inline"
       d="M -751.47283,594.3725 C -751.85638,594.35696 -752.23248,594.44806 -752.56122,594.67391 C -753.4379,595.2762 -753.61617,596.56205 -752.94637,597.53727 L -741.66037,613.9137 C -759.5915,622.25664 -772.17477,638.12201 -773.77692,656.62972 L -651.62349,656.62972 C -653.22617,638.122 -665.82245,622.25717 -683.75681,613.9137 L -672.47081,597.53727 C -671.80369,596.5626 -671.96364,595.2794 -672.83919,594.67391 C -673.71635,594.07218 -674.96201,594.36902 -675.63555,595.3437 L -687.35692,612.35643 C -695.07507,609.31183 -703.66636,607.61765 -712.70856,607.61765 C -721.74808,607.61765 -730.32534,609.31182 -738.04349,612.35643 L -749.76486,595.3437 C -750.18581,594.73453 -750.83353,594.39841 -751.47283,594.3725 z M -738.46209,626.20439 C -734.72732,626.2044 -731.71395,629.24096 -731.71395,632.9693 C -731.71395,636.70137 -734.73107,639.7342 -738.46209,639.7342 C -742.19417,639.7342 -745.22699,636.70406 -745.22699,632.9693 C -745.22699,629.24096 -742.19685,626.20439 -738.46209,626.20439 z M -686.08431,626.20439 C -682.34901,626.2044 -679.33618,629.24096 -679.33618,632.9693 C -679.33618,636.70137 -682.34955,639.7342 -686.08431,639.7342 C -689.81907,639.7342 -692.84922,636.70406 -692.84922,632.9693 C -692.84922,629.24096 -689.81854,626.20439 -686.08431,626.20439 z M -795.49494,665.0691 C -803.07966,665.0691 -809.20894,671.31867 -809.20894,679.01753 L -809.20894,733.4884 C -809.20894,741.1894 -803.0802,747.43683 -795.49494,747.43683 C -787.91127,747.43683 -781.76419,741.18995 -781.76419,733.4884 L -781.76419,679.01753 C -781.76846,671.31868 -787.91396,665.0691 -795.49494,665.0691 z M -629.90549,665.0691 C -637.48594,665.0691 -643.63624,671.31867 -643.63624,679.01753 L -643.63624,733.4884 C -643.63624,741.1894 -637.48594,747.43683 -629.90549,747.43683 C -622.32505,747.43683 -616.19146,741.18995 -616.19146,733.4884 L -616.19146,679.01753 C -616.19093,671.31868 -622.32451,665.0691 -629.90549,665.0691 z M -773.509,665.48772 L -773.509,765.03563 C -773.509,770.94855 -768.70525,775.73557 -762.79232,775.73557 L -750.56861,775.73557 L -750.56861,806.04368 C -750.56861,813.7436 -744.42152,819.99211 -736.83787,819.99211 C -729.25689,819.9921 -723.10712,813.74361 -723.10712,806.04368 L -723.10712,775.73557 L -701.74074,775.73557 L -701.74074,806.04368 C -701.74074,813.7436 -695.60715,819.99211 -688.02671,819.99211 C -680.44627,819.9921 -674.29596,813.74361 -674.29596,806.04368 L -674.29596,775.73557 L -662.05553,775.73557 C -656.14957,775.73557 -651.35557,770.94427 -651.35557,765.03563 L -651.35557,665.48772 L -773.509,665.48772 z M -755.39706,688.63985 C -754.38118,688.63992 -753.36047,688.73344 -752.33274,688.94126 C -751.30506,689.1492 -750.34549,689.43209 -749.43591,689.7785 C -748.52633,690.12503 -747.71669,690.52107 -747.00789,690.95063 C -746.29914,691.38032 -745.82578,691.72556 -745.60132,691.98881 C -745.37692,692.25218 -745.2369,692.45599 -745.16596,692.60837 C -745.09512,692.76087 -745.02905,692.9589 -744.98179,693.19444 C -744.93458,693.43012 -744.90495,693.71587 -744.88132,694.04842 C -744.85775,694.38107 -744.84783,694.81119 -744.84783,695.33777 C -744.84783,695.83674 -744.86262,696.27262 -744.89804,696.66061 C -744.93351,697.0487 -744.97788,697.36855 -745.04877,697.63181 C -745.11966,697.8952 -745.22024,698.09321 -745.35018,698.21788 C -745.48012,698.34267 -745.6369,698.40211 -745.80226,698.40208 C -746.06219,698.40212 -746.46948,698.22085 -747.02466,697.83275 C -747.57989,697.44477 -748.24754,696.99502 -749.05075,696.50991 C -749.85408,696.02492 -750.81552,695.58903 -751.91414,695.18707 C -753.01276,694.78522 -754.24449,694.58432 -755.61474,694.58426 C -756.89054,694.58431 -758.00195,694.78522 -758.94696,695.18707 C -759.89199,695.58903 -760.67698,696.11266 -761.29123,696.77783 C -761.90551,697.44309 -762.35719,698.24095 -762.66431,699.15559 C -762.97145,700.0703 -763.13318,701.04369 -763.13316,702.06919 C -763.13316,703.56598 -762.83634,704.8563 -762.24569,705.93724 C -761.65506,707.01828 -760.86515,707.96911 -759.88467,708.8006 C -758.90422,709.63215 -757.78788,710.40173 -756.53571,711.09464 C -755.28357,711.78762 -754.00057,712.481 -752.70112,713.18774 C -751.40173,713.8946 -750.1355,714.66993 -748.88331,715.51527 C -747.63122,716.3607 -746.51487,717.36235 -745.53434,718.51259 C -744.55393,719.66291 -743.75907,721.01558 -743.15658,722.58158 C -742.5542,724.14763 -742.25241,726.00664 -742.25236,728.14086 C -742.25241,730.66317 -742.64984,732.90435 -743.44127,734.87228 C -744.23275,736.84021 -745.33426,738.50697 -746.73997,739.87898 C -748.14573,741.25099 -749.7946,742.28383 -751.69643,742.97677 C -753.59832,743.6697 -755.64463,744.01494 -757.8418,744.01494 C -759.37748,744.01496 -760.80052,743.86773 -762.11173,743.56283 C -763.42294,743.25792 -764.60043,742.88441 -765.62814,742.44093 C -766.65585,741.99744 -767.50989,741.53906 -768.20684,741.06786 C -768.90378,740.59666 -769.39195,740.19484 -769.66364,739.86223 C -769.93533,739.52962 -770.13651,739.1024 -770.26645,738.58963 C -770.39639,738.07685 -770.46739,737.38927 -770.46739,736.53001 C -770.46738,735.92024 -770.43092,735.42488 -770.38367,735.02298 C -770.33641,734.62109 -770.27724,734.28451 -770.18273,734.03504 C -770.08823,733.78561 -769.97284,733.61298 -769.83109,733.51595 C -769.68934,733.41894 -769.51775,733.36526 -769.32874,733.36524 C -768.99798,733.36527 -768.52462,733.61408 -767.92218,734.08527 C -767.31973,734.55647 -766.55642,735.07146 -765.6114,735.62579 C -764.66637,736.18017 -763.51357,736.69802 -762.17871,737.18306 C -760.84386,737.66811 -759.30545,737.90309 -757.55714,737.90309 C -756.23414,737.90309 -755.02214,737.6993 -753.92352,737.28353 C -752.82495,736.86777 -751.8851,736.27082 -751.09362,735.50858 C -750.30219,734.74636 -749.69376,733.8209 -749.26846,732.7122 C -748.84317,731.60352 -748.63216,730.34147 -748.63216,728.92787 C -748.63216,727.40344 -748.92901,726.09058 -749.51961,725.00958 C -750.11026,723.92861 -750.89526,722.98065 -751.86388,722.16296 C -752.83256,721.34533 -753.92229,720.59826 -755.16264,719.91916 C -756.403,719.24011 -757.68105,718.54963 -758.98045,717.8428 C -760.27986,717.13603 -761.53625,716.3578 -762.76478,715.49853 C -763.99331,714.63931 -765.09486,713.63188 -766.06351,712.46772 C -767.03215,711.3036 -767.82206,709.93131 -768.42452,708.36524 C -769.02696,706.79925 -769.32874,704.92869 -769.32874,702.73898 C -769.32874,700.49391 -768.97077,698.48771 -768.27382,696.72759 C -767.57687,694.96758 -766.61732,693.48212 -765.37697,692.29022 C -764.13661,691.09841 -762.65246,690.20125 -760.93959,689.57756 C -759.22675,688.95397 -757.38163,688.63991 -755.39706,688.63985 z M -735.20282,689.17568 C -734.54128,689.17574 -734.01863,689.20115 -733.62881,689.24266 C -733.23899,689.28429 -732.93721,689.34952 -732.72459,689.46035 C -732.51197,689.57126 -732.34533,689.73235 -732.23896,689.91246 C -732.13265,690.09267 -732.03208,690.32187 -731.93756,690.59899 L -718.79291,735.86022 L -718.75942,735.86022 L -705.96638,690.68272 C -705.89554,690.37788 -705.80975,690.12327 -705.71518,689.9292 C -705.62071,689.73523 -705.44914,689.57126 -705.21284,689.46035 C -704.97664,689.34952 -704.65021,689.2843 -704.22492,689.24266 C -703.79968,689.20114 -703.24247,689.17574 -702.53367,689.17568 C -701.80134,689.17574 -701.2175,689.20692 -700.7922,689.27615 C -700.36702,689.34551 -700.0751,689.48406 -699.92147,689.67803 C -699.76796,689.87211 -699.70189,690.15788 -699.73731,690.53201 C -699.77278,690.90625 -699.89999,691.39583 -700.08892,692.00556 L -715.04207,741.97208 C -715.13659,742.27696 -715.26181,742.53158 -715.42717,742.72559 C -715.59258,742.91962 -715.81844,743.06684 -716.11374,743.1777 C -716.40903,743.28857 -716.79167,743.37056 -717.25238,743.41213 C -717.71309,743.45371 -718.29195,743.47911 -718.97707,743.47911 C -719.49688,743.47911 -719.94361,743.47623 -720.33343,743.46237 C -720.72325,743.44852 -721.05461,743.40059 -721.33812,743.34515 C -721.62163,743.28971 -721.87406,743.23025 -722.07489,743.16096 C -722.27572,743.09168 -722.4355,743.0039 -722.57723,742.89304 C -722.71901,742.78219 -722.84617,742.64362 -722.92885,742.49117 C -723.01158,742.33873 -723.07567,742.16033 -723.14656,741.93859 L -738.14991,691.95532 C -738.3389,691.34561 -738.42276,690.85602 -738.43454,690.48178 C -738.44639,690.10767 -738.36253,689.82186 -738.14991,689.62779 C -737.93724,689.43382 -737.58423,689.3149 -737.11173,689.25941 C -736.63918,689.20403 -736.00609,689.17574 -735.20282,689.17568 z M -660.50419,689.30964 C -659.98448,689.30968 -659.52591,689.33798 -659.14788,689.39337 C -658.76991,689.44887 -658.47305,689.53662 -658.26038,689.66128 C -658.04782,689.78609 -657.90282,689.93039 -657.8083,690.09665 C -657.71383,690.26299 -657.65762,690.43852 -657.65757,690.63248 L -657.65757,740.28085 C -657.65762,740.8352 -657.73848,741.29936 -657.892,741.68742 C -658.04562,742.07546 -658.24677,742.39241 -658.49481,742.64187 C -658.74295,742.89132 -659.02496,743.06684 -659.33205,743.1777 C -659.63924,743.28857 -659.94595,743.34515 -660.25304,743.34515 L -662.19544,743.34515 C -662.80972,743.34516 -663.34228,743.27992 -663.80294,743.12747 C -664.26365,742.97503 -664.71236,742.69215 -665.12575,742.29023 C -665.53926,741.88833 -665.95147,741.34218 -666.36487,740.64924 C -666.77837,739.95631 -667.2251,739.0678 -667.72123,737.98681 L -682.18874,707.39404 C -682.94475,705.81418 -683.69819,704.15322 -684.46604,702.42083 C -685.23389,700.68852 -685.94783,698.99928 -686.60938,697.3639 L -686.69307,697.3639 C -686.64587,699.35962 -686.59952,701.39697 -686.57589,703.47575 C -686.55226,705.55461 -686.5424,707.62027 -686.5424,709.67133 L -686.5424,742.13953 C -686.5424,742.33353 -686.59861,742.5287 -686.69307,742.70885 C -686.78759,742.88903 -686.93752,743.03047 -687.16193,743.12747 C -687.38639,743.22449 -687.68324,743.30935 -688.04943,743.37864 C -688.41562,743.44793 -688.88897,743.47911 -689.45599,743.47911 C -690.02301,743.47911 -690.47965,743.44794 -690.84579,743.37864 C -691.21203,743.30934 -691.5039,743.22448 -691.71652,743.12747 C -691.92919,743.03047 -692.0909,742.88901 -692.18537,742.70885 C -692.27989,742.52871 -692.31938,742.33355 -692.31933,742.13953 L -692.31933,692.5079 C -692.31933,691.39926 -692.05211,690.60139 -691.53235,690.13014 C -691.01259,689.65898 -690.45538,689.42691 -689.8411,689.42686 L -686.9275,689.42686 C -686.24238,689.42693 -685.68024,689.48925 -685.21953,689.62779 C -684.75887,689.76643 -684.34666,689.99564 -683.98041,690.31433 C -683.61428,690.63313 -683.25136,691.08576 -682.90875,691.65392 C -682.56624,692.22218 -682.18853,692.93806 -681.78687,693.79725 L -670.66831,717.40744 C -669.9832,718.84877 -669.31362,720.25514 -668.67565,721.62713 C -668.0378,722.99917 -667.42443,724.34895 -666.83373,725.67937 C -666.24313,727.00982 -665.67113,728.32556 -665.09226,729.61441 C -664.51351,730.90328 -663.9346,732.19649 -663.36758,733.4992 L -663.33409,733.4992 C -663.38135,731.30954 -663.40605,729.02045 -663.41778,726.65057 C -663.42968,724.28077 -663.43461,722.0084 -663.43455,719.81869 L -663.43455,690.63248 C -663.43461,690.43852 -663.39512,690.263 -663.3006,690.09665 C -663.20613,689.93038 -663.03943,689.78608 -662.81497,689.66128 C -662.59056,689.53663 -662.29376,689.44886 -661.92752,689.39337 C -661.56133,689.33799 -661.09489,689.30969 -660.50419,689.30964 z M -827.34106,591.40894 L -597.65895,591.40894 L -597.65895,821.09106 L -827.34106,821.09106 L -827.34106,591.40894 z" />
  </g>
</svg>
